<svg xmlns="http://www.w3.org/2000/svg" width="24" height="24" viewBox="0 0 24 24" fill="none" stroke="currentColor" stroke-width="2" stroke-linecap="round" stroke-linejoin="round">
  <path d="M12 15.5a3.5 3.5 0 1 0 0-7 3.5 3.5 0 0 0 0 7Z" />
  <path d="M19.4 15a1.7 1.7 0 0 0 .34 1.87l.04.04a2 2 0 0 1-1.42 3.41h-.06a1.7 1.7 0 0 0-1.7 1.2 2 2 0 0 1-3.73 0A1.7 1.7 0 0 0 11.2 21h-.4a1.7 1.7 0 0 0-1.7 1.2 2 2 0 0 1-3.73 0A1.7 1.7 0 0 0 3.66 20.3h-.06A2 2 0 0 1 2.18 16.9l.04-.04A1.7 1.7 0 0 0 2.6 15a1.7 1.7 0 0 0-1.2-1.7 2 2 0 0 1 0-3.73A1.7 1.7 0 0 0 2.6 7.8a1.7 1.7 0 0 0-.34-1.87l-.04-.04A2 2 0 0 1 3.6 2.48h.06A1.7 1.7 0 0 0 5.36 1.28a2 2 0 0 1 3.73 0A1.7 1.7 0 0 0 10.8 3h.4a1.7 1.7 0 0 0 1.7-1.2 2 2 0 0 1 3.73 0A1.7 1.7 0 0 0 20.34 2.48h.06a2 2 0 0 1 1.42 3.41l-.04.04A1.7 1.7 0 0 0 21.4 7.8a1.7 1.7 0 0 0 1.2 1.7 2 2 0 0 1 0 3.73 1.7 1.7 0 0 0-1.2 1.7Z" />
</svg>
